<svg xmlns="http://www.w3.org/2000/svg" xmlns:xlink="http://www.w3.org/1999/xlink" width="236.107" height="157.181" version="1"><defs><linearGradient id="a"><stop offset="0" stop-color="#ffc0cb"/><stop offset=".115" stop-color="#ffc0cb" stop-opacity=".498"/><stop offset=".287" stop-color="#ffc0cb" stop-opacity=".247"/><stop offset="1" stop-color="#ffc0cb" stop-opacity="0"/></linearGradient><linearGradient xlink:href="#a" id="b" x1="52.086" y1="43.065" x2="237.036" y2="108.05" gradientUnits="userSpaceOnUse"/></defs><path d="M164.75 156.989c-4.168-1.161.591-9.324 5.455-9.356 4.69-.031 5.058-1.01 4.64-12.311-.453-12.234-.675-12.612-11.885-20.201-8.154-5.521-14.533-12.873-17.499-20.171-1.22-3.003-2.611-5.821-3.09-6.263-.479-.442-5.821-.421-11.871.047-7.087.547-13.134.476-17-.2-5.951-1.041-8.496-2.12-22-9.331-6.812-3.637-7.202-3.72-14.5-3.092-4.125.355-10.037 1.12-13.137 1.699-5.45 1.018-5.657 1.174-6.239 4.695-1.572 9.508.25 15.142 4.897 15.142 1.357 0 2.86.844 3.443 1.934 1.348 2.519 1.341 10.066-.01 10.066-1.228 0-5.955-4.539-5.955-5.718 0-.445-1.688-1.853-3.75-3.129l-3.75-2.32-.222-11.534c-.122-6.344.211-12.344.742-13.335.53-.991 2.43-2.095 4.222-2.453 5.87-1.174 12.758-3.653 12.758-4.591 0-.506-.434-.92-.965-.92-1.383 0-2.801-3.002-4.503-9.538-1.218-4.675-1.277-6.912-.33-12.434 1.068-6.228.991-7.046-1.024-10.911-1.198-2.298-2.178-4.979-2.178-5.957 0-.978-.661-2.652-1.468-3.719-1.771-2.341-1.885-1.752-.454 2.352.823 2.362.697 4.957-.536 11.001-.969 4.751-1.351 9.546-.958 12.009.752 4.7-.91 7.197-4.791 7.197-4.045 0-6.548-2.626-7.722-8.102-.602-2.808-2.97-8.771-5.263-13.252-2.292-4.481-4.455-8.792-4.805-9.58-.35-.788-2.182-1.953-4.07-2.589-2.642-.889-3.433-1.712-3.433-3.567 0-2.172.367-2.379 3.701-2.088l3.701.323-.934-3.256c-1.228-4.282-.573-4.712 3.072-2.017l3.016 2.23 2.546-2.003c1.4-1.102 3.878-3.841 5.505-6.088 3.859-5.328 6.315-6.188 13.863-4.859 4.64.817 6.409.779 7.545-.164.816-.678 1.478-.839 1.469-.36-.026 1.478-1.395 2.985-3.378 3.719-3.74 1.384-.61 1.854 4.378.657 4.877-1.17 5.259-1.106 9.027 1.505 2.79 1.934 4.799 2.6 6.908 2.29 3.755-.551 2.914.955-1.583 2.834-1.88.786-3.159 1.848-2.842 2.36.348.563 1.518.503 2.957-.153 1.824-.831 3.494-.705 7.142.538 2.619.892 5.806 1.622 7.084 1.622 3.221 0 2.901 1.649-.678 3.5-1.65.853-3 1.744-3 1.979 0 .235 2.176.17 4.835-.145 4.443-.526 5.224-.275 9.644 3.099 2.645 2.019 5.42 3.437 6.165 3.151 2.491-.956 1.393.346-1.595 1.891-1.623.839-3.873 1.526-5 1.526-2.942 0-2.573 1.557 2.052 8.657 4.403 6.759 9.574 10.133 18.898 12.333 14.857 3.505 23.892 5.899 26.71 7.077 2.789 1.166 3.677 1.119 6.768-.355 2.032-.969 4.025-2.879 4.648-4.454 2.329-5.891 3.886-7.841 8.053-10.087 6.005-3.237 14.119-2.688 17.446 1.18 2.369 2.754 2.533 3.43 4.336 17.796 1.477 11.773 3.552 18.229 7.186 22.368 2.849 3.245 3.47 3.486 8.989 3.486 7.502 0 12.474-2.017 16.668-6.762l3.303-3.738-1.604 4c-1.658 4.135-6.506 9.838-10.003 11.768-1.1.607-4.25 1.657-7 2.333l-5 1.229 6.109.085c4.821.067 7.285-.508 11.685-2.727 5.007-2.526 5.467-2.608 4.505-.812-1.771 3.309-9.843 11.488-13.675 13.857-2.876 1.778-5.112 2.223-11.262 2.243-7.104.023-7.959-.205-11.518-3.072-2.114-1.704-8.55-2.781-9.844-12.753-.73-5.621 0-17.646 0-17.646s1.779-10.19-.624-17.515c-1.873-5.708-8.126-8.564-12.316-2.015-1.926 3.01-4.356 6.007-5.4 6.659-1.844 1.151-1.827 1.325.555 5.917 3.452 6.653 3.873 14.355 1.418 25.951l-2.011 9.5 2.439 3.554c1.341 1.955 4.014 5.08 5.939 6.946 3.958 3.836 4.091 5.02 2.853 25.266-.559 9.144-.898 10.643-2.5 11.062-1.019.266-1.853 1.171-1.853 2.011 0 .839-.787 1.758-1.75 2.04-3.232.949-8.735 1.453-10.5.962zm-122.75-125.463c0-1.802-.234-1.929-1.547-.838-1.236 1.026-1.286 1.45-.25 2.107 1.784 1.132 1.797 1.123 1.797-1.269zm74.25 115.114c-1.238-.51-2.25-1.427-2.25-2.037 0-1.738 5.657-6.955 7.542-6.955 2.1 0 12.989-6.413 16.708-9.84 4.712-4.342 3.607-10.09-3.807-19.802-2.955-3.871-7.299-14.835-6.281-15.853.191-.191 3.037-.495 6.325-.676l5.978-.329 3.191 6c4.094 7.698 3.758 6.93 6.339 14.5 3.95 11.589 4.018 11.224-3.095 16.672-3.467 2.656-7.9 6.216-9.852 7.911-1.952 1.696-4.343 3.372-5.313 3.724-.971.353-2.18 1.734-2.688 3.07-.508 1.336-1.289 2.645-1.735 2.91-1.87 1.11-8.979 1.563-11.062.704zm-91.25-44.054c0-2.26 2.766-11.257 4.443-14.45.581-1.107 3.16-5.165 5.73-9.018 2.57-3.853 4.953-8.123 5.296-9.488.525-2.089 2.158-3.017 10.327-5.869 5.337-1.863 10.177-3.564 10.754-3.78.578-.216 1.775 1.127 2.661 2.984l1.61 3.377-9.161 2.77c-10.533 3.185-12.568 4.724-16.097 12.177-1.613 3.407-3.455 5.748-4.977 6.327-3.24 1.232-3.989 4.135-2.183 8.459l1.493 3.572-3.681 2.501c-4.475 3.041-6.216 3.164-6.216.439zm-4.765-84.246c-4.095-1.827-2.476-5.157 1.895-3.899 2.112.607 2.31 1.004 1.4 2.802-.872 1.724-1.455 1.918-3.295 1.097zm-7.4-2.454c-2.819-.596-3.115-3.238-.363-3.238 1.325 0 2.631.359 2.903.798.811 1.313-.755 2.818-2.54 2.44zm-7.835-3.707c0-.895.586-1.244 1.5-.893 1.941.745 1.941 2.362 0 2.362-.825 0-1.5-.661-1.5-1.469zm-5-1.5c0-.533.675-.71 1.5-.393 1.921.737 1.921 1.362 0 1.362-.825 0-1.5-.436-1.5-.969z" fill="url(#b)"/></svg>